<svg xmlns="http://www.w3.org/2000/svg" viewBox="0 0 820.73 438.99"><defs><style>.cls-1{fill:#fff;}</style></defs><g id="Layer_2" data-name="Layer 2"><g id="Layer_1-2" data-name="Layer 1"><path class="cls-1" d="M30.2,255.44h-.48l-.18.13-.09.23.13.26.27.14-.58.84-.4.31,0,.27-.66,1.24-.05.32-.26-.09-.09.22-.23.13.18.31-.89,1.92-.62,1.11H26l-.36.22.22.36.05.22-.89,2-.58.89-.44.31.13.35-.36.89-.66,1.07-.36.94-.44.26-.09,1h-.49l.09.27-.05.49L21,273.32l-.05.27-.67.22v.36l.14.4-.14.18h-1l-.22.17-.49-.17-.45-.36-.57-.89-.18-.49-.14-.93-.22-.14-.67-.84-.71-1.51-.4-.67.18-.58-.13-.18-.45-.09-1.33-2.58.18-.49-.36.09-.18-.53-1-1.82-.45-1,.27-.49-.09-.27-.27-.09-.31.09-1-2-.44-.71.22-.85-.13-.27-.58.18-.89-2-.53-.93.31-.4v-.36H8l-.13.4-1-1.86-1.91-3.87-.22-.49-.4.17.09,2.23-.05.53-.13.4.13.49.09,3.74-.09.22L4,256l.4.4V257l-.49.58.49.4,0,.53-.36.72.13.26L4.4,261l-.49.09,0,.31.44.27-.09.26v.49l.09.27-.4.09v.49l.22.13.14.49,0,.8H3.91v.36l.49.22-.09,1.07-.13.18-.27.09v.31l.49.17v1.07l-.4.09.22.45.14.53,0,.62-.49.4.23.4.17.14.27,0-.09.22.09.72L4,271.9l.09.31-.18.13.49.45v.8l-.31.09-.18.22v.18l.14.22.35.31.09.27v.36l-.49.31-.13.22-.05.31-.31.09-.58-.09-.17-.49-.18-.18H2.27l-.18.14v.31l-.09.22-.22-.18-.09-.49.22-.49-.13-.17-.27-1.16.4-.36-.35-1,.13-.71.22-.18-.4-1v-.26l.31-.41-.22-.48,0-.58.08-.54.27-.4-.27-.53,0-.58.13-.53.18-.18-.27-.71v-.54l.27-.66-.13-.18-.18-.54.13-.84.18-.18-.22-.44-.09-.58.13-.49.18-.18-.31-.67v-.57l.22-.76-.18-1.11v-1.52l-.13-.44.09-.22.31-.27-.13-.31-.14-1,.09-1,0-.49-.18-.54.4-.49-.4-.26.18-1.12v-2l-.13-2.09,0-1.25.31-.58-.27-.49-.08-.53.13-.45.22-.17,0-.36-.14-.22.09-.27.45.05,1.11-.09.89.13.53.89.4,1,0,.44h.4l-.05.32.23.44-.09.18.58.8.93,1.87-.49-.18,0,.31.18.13.45,0,.22.18.18.93.31.4.53,1,.4,1,.36.36,0,.31-.13.31.4.36.58.84.58,1.29-.27,0,0,.31.26.09.31-.09.05.58-.13.31.13.18h.53l.89,1.82-.53.62v.18l.22.22.27-.09.13-.17.22,0,.14.22v.67l.4.31.58.85.44,1,.4.66,0,.63.08.22.18.13.27.05.13.53,1,1.78.13.53v.54l1,1.2.89,2,.54.93.49-.22.26-.45.4-1,.32-.36.22-.13v-.53l.13-.45.54.18.22-.13.09-.31-.09-.32-.27.05-.13.18v-.23l.71-1.51,0-.31.8-.45h-.49l.36-.4.13-.26.27.09.27-.09v-.31l-.18-.36v-.31l.31-.45.49-1,.31-.44.22-.18.05-.54.4-.93.44-.67.36-1,.53-.18.14-.22-.14-.22,0-.36.27-.44.4.35.22,0,0-.45-.22-.18-.31.09.18-.49.53-.8.22-.8H28l.18-.13v-.94l.13-.17.22.09.27.4.22-.09.14-.49-.14-.18-.53.09.49-1,.18-.85.8-.62.18,0-.14-.71.14-.27.22.09.13.18.22,0,.18-.18-.09-.44-.4-.27.31-.36.67-1.46.49-.54-.09-.26.36-.36v-.36l.4.09-.09-.26.09-.76,1.2-1.87.13-.53.36.26.31-.08.18-.18-.14-.22-.26-.14-.18-.22.49-.22.18-.18.17.18.63,0,.53-.13.58,0,.22.4,0,.76-.18.53.27.71-.18,1.12.18,2.27-.09,1-.18.44.22.54.05.58-.14.49-.22.13.4.62,0,.58-.26.49-.27.13.31.4.18.54,0,.58-.14.26.14.49V255l-.14.49-.31.27.36.35.09.27-.09.76-.27.44.18.18.13.53,0,.54-.18.57L37,260l-.09.58-.27.71.31.35.09.8-.09.27-.4.31.27.36.22.53,0,.54-.36.4.18.13.31,1.2-.13.18-.45.27.58.89,0,.31-.27.53.4,1.42-.22.18-.09.22v.54l.13.53,0,.54-.36.4.31.44.09.27v.53l-.22.58.18,1,0,.54-.31.62L35.45,276v-.49l-.17-.09-.27.09-.13.58h-.32l-.35-.58.31-.58-.4-.44.27-1.11.13-.22-.18-.23-.18-.58.05-.57.09-.23.22-.13-.22-.49,0-.84.27-.49-.31-.67v-.58l.31-.67-.27-1,0-.49.22-.49-.22-.4-.18-.76.58-.48-.09-.18-.4-.27V263l.18-.49.13-.14-.13-.13-.18-.76.09-.57.31-.36-.49-1.33.49-.49-.54-1.25,0-.27.22-.17.27-.05.18-.18-.49-.09.22-.31-.18-.13,0-1,.31-.49-.18-.89-.13-2v-2.27l-.09-.27-.27-.27-.31.05-.4.31-.44,1-.4.31,0,.54-.22.62-.4-.09-.05.49-.35,1-.76,1.42-.18.49ZM2.09,242.8v.32l.18.17.31-.35.09-.22H2.36Zm0,18.56.27.08-.18-.26Zm0,5.56.31-.14.18-.26-.22,0-.23.14Zm0,1.73h.27l.13-.13v-.27l-.31.09Zm0,1.78.31.76.27-.36,0-.27-.4-.26Zm0,3.83.22.13h.31l.23-.13V274l-.18-.23-.23-.09-.22.05-.13.22Zm.18-18.15h.22l-.13-.18-.18.09Zm-.09,3.51.18.13h.35l.14-.31-.27.09-.22-.44Zm.4,10.63.27.09-.18-.26Zm.58-27.85h.26l.18-.08,0-.32-.14-.17-.26-.09-.09.49Zm-.09,21.36v.18l.18-.09-.09-.18Zm0,2,.18.09h.26l-.09-.22-.22-.05Zm0,9,.09.49.44-.09,0-.31-.36-.18Zm.18-17.89.53-.09.13-.17-.22-.09-.22.13-.05-.27-.26.09-.05.22Zm.26,3.74.09-.27-.13-.26L3.16,260v.31l.13.18Zm-.35,7.25.26,0,.14-.18v-.22l-.23-.14-.13.27Zm.09-9,.17.09.09-.17-.18-.09ZM3.33,262h.18v-.17H3.33Zm2.76-15.3h.23l.08-.18-.31-.09Zm0,3.65h.23l0-.18-.18-.13Zm2,.26.05-.22-.31-.13,0,.27Zm.4,4.41.49.13.23-.09,0-.22-.76-.18Zm.18-1.91.23-.36-.32.13Zm1.25,1.15.09-.22-.09-.31-.18-.13-.13.17,0,.27.09.18Zm-.09,1.83,0-.27-.22-.22-.09.18,0,.22Zm.4.35.09.27.18.18.44-.09.14-.22-.45-.27h-.18Zm.18,2.23h.35l.23-.14.09-.26-.27-.09h-.49v.26Zm.84-1.16.23,0,.08-.23h-.31Zm0,.4.4.09-.17-.22Zm0,1.51h.23v-.17h-.23Zm1.07,3.07.13-.22.27-.09,0-.31-.18-.09-.22.09-.18.22,0,.31Zm0-1.73.27-.09.13-.22v-.18l-.44.27Zm1.34,2.49v-.18l-.18-.09-.05.18Zm.17,2.58.54.22.13-.09-.09-.4-.27-.22-.17.22Zm.49-3.43.14-.4-.23-.09-.09.32Zm.23,1.69v-.44h-.32l.09.27Zm.75,2.5v-.18l-.18-.05-.09.18Zm.09-1.43.09-.22-.18-.13-.09.22Zm.58.76,0-.31-.26-.14,0,.31Zm-.09,3.47.27.09-.14-.27Zm.18-1.47h.18v-.18h-.18Zm2.09,5.47,0-.31-.22-.18-.31-.09,0,.23.08.22.23.13Zm-.49-3.74.27-.08,0-.32-.18-.17-.13.26Zm.89,4.72h.31l.27-.13V274l-.14-.18-.44-.13-.09.49Zm2.09-2.05h-.27l.14.18Zm.49-2.84.31-.09,0,.26.4-.08-.09-.49h-.36l-.22.13Zm2-1.65.31,0,.27-.14,0-.26-.18-.23-.27-.09-.09.18Zm1-2.67v-.27l-.22-.22,0,.36Zm.53-.35-.26-.23.09.27Zm.23-4.54,0,.31.13.13.27,0,.22-.36v-.31l-.4-.18v.45Zm.09,1.64v.36l.17.22.27-.09.13-.17v-.32l-.35,0Zm0,2,0,.35.31,0,.09-.45-.09-.22-.13.22Zm.84-4.59.18-.13-.18-.13Zm0,.4H26v-.22H25.8Zm.4,1.78v-.44h-.31l-.09.22.09.22Zm.67-2.75.18-.67-.32,0-.13.23v.26Zm-.09,1.91.27-.05.22-.22,0-.22-.17-.18-.27.4Zm.67-4.89.31,0L28,256l.31,0,0-.31-.36-.32h-.18l-.17.14Zm.57,2,.23-.09,0-.18-.18-.13-.09.18Zm1.52-5.56.31-.4-.22-.09-.23.09,0,.22Zm.09,1.91.22.09.18-.18L29.8,254Zm.66-2.75.23.08.44-.17.09-.23-.27,0-.26.13Zm.23,1.91,0-.31-.18-.18-.09.27Zm.93-1.07-.18-.09-.09.18.18.09Zm.09-1.91.22.09.09-.18-.22-.09Zm3.56,12.72h-.31l.17.13Zm-.22,10.81v.22l.17.18.32.09.08-.49-.26-.09ZM35,242.8l.27.18-.18.09h.18l.09-.09v-.18l-.09-.08H35.1Zm.09,14.46.13.31,0,.45.22-.09.09-.27,0-.31-.13-.18Zm0,2.58h.18v-.22H35.1Zm.35,5.16v-.31l-.26-.09,0,.27Zm-.26,1.92h.26l0-.18h-.22Zm.26-5.74v-.27l-.17-.13-.05.26Zm-.17,9.38.22-.08v-.32l-.22-.08Zm.57-28.24.45.08.22-.08,0-.27-.18-.22-.27-.09-.13.26Zm0,14.72.27-.09.09-.22L36,256.6l-.13.17Zm0,1.82.27.09.22-.09.18-.57-.26-.09-.14.22-.22.13Zm0,16.06.14.18.27,0,.22-.09,0-.22-.13-.14H35.9Zm.18-1.51.4-.18.09-.22h-.31l-.27-.18.05.32Zm.4-9.07-.17-.4-.23-.09,0,.22.13.18Zm.09-9.39,0-.27-.45-.13.09.22.18.14ZM36,266l.23.09.26-.09-.09-.27-.17-.09-.14.18Zm.23,5.47.22-.09v-.22l-.14-.22-.22-.14,0,.18.13.18Zm0-27.54.17.09.09-.18-.18-.09Zm0,7.48h.17l0-.23-.14-.09Z"/><path class="cls-1" d="M63.53,241.47l1-.27.49.05.44.22.49-.13.58-.05.75.18.49-.22.54-.05.71.27.18-.13.58-.18.89.13.17.18.18-.13.85-.14.8.27.8-.27.8.14.18.13.44-.18,1.07.09.22.09.27-.09,0-.31.54.18.93.13,1.47-.09.27.71-.05.54-.31.35.31.72-.13.26h-.31l-.36-.31-.35.27-1.07.22-.09-.31-.18-.18-1.07.45-.49,0-.26-.18-1,.27-.71-.22-1.38.31-.09-.22-.49-.27-.27.13-.13.27-.22-.09-.81.09-.08-.4-.27.09-.31.31-1.16-.18-1.33.18-.67-.49-.4.31-.49.14-1.65-.09-.71.22-.49-.49-.31.4-.53-.09H59.35l-.45.22-.27.4-.17.49-.05.54.13.84h-.66l.09.27.17.18.23-.09.17.44v1l-.22,0-.44-.18,0,.27.18.18.44,0V250l-.08.22-.67.09.13.22h.54l.22.13-.14.58.14,1.07-.22-.09v-.31h-.32l-.35.22.13.22.22.14.23-.09.09.22v.94l-.36.09.22.35.14.49.08,2,.27.66.18.18.76.22.35,0v.4l.18-.18,1.16-.31v.27l.26.31.27-.09.31-.4.8.13.18-.13.36.49.22,0,.09-.17v-.27l.53.09.54-.09.44.49.4-.49,1,.22.14.18h.35l.4-.31.27-.09,1.11.27.45-.27.93.18.4.31.14-.18.53-.22.62,0,.22.14.09.22.45-.27.53-.13.58.09.36.31.17-.22.49-.14,1.25.36.13.53v.63l-.44-.09-.18.13-.09.22.13.23.23.13.35,0-.13.23-.45.22h-.26l-.31-.27-.49.22-.54.05-.71-.27-.31.09-.44.27-.49,0-.58-.49-.58.36h-.36l-.22.13-.22-.09-.22-.31-1.07.31-.58-.09-.4-.31-.45.27-.31.09h-.58l-.26-.09-.18-.18-.76.27-.57-.14-.23-.13-.8.31-.58,0L63,260l-1.56.31-.53-.22-1,.4-.58-.09-.54.49-.13,1.16.09.62-.22.13-.67.09.09.31.18.09.48.05v1.24l-.22,0-.22.44h.22l.18.63,0,.62-.45.09.13.22.4.27.05.8-.22.4-.18.13.35.76-.13,1.07.13,2-.08.58.35.35,1,.31.53.09h4.32l2.13,0,.81-.22.44.26,1.16-.22.53.09.22.13.23-.13.57,0,1.12.18.49-.09h3.29l.84-.17.45.26,1.15-.18,1.34.18,0,.8.27.27-.13,1.11-.18.49-1.16.09,0-.49-.31-.27h-.32l-.17.14v.31l-.09.22-.67.09-.53-.58L76,275.5l-.13.05-.13.22,0,.4-.58,0-.22-.09-.22-.45-.22.49-.23,0-.89.09-.44-.14-.13-.18-.76.32H71.4l-.49-.23-.58.27h-.84L69.4,276l0-.54-.67.23.22.44H67.66l-.66-.76-.23.18.27.4,0,.18-.23,0-.48-.08-.63,0-.09-.49-.22-.18-.18.18.09.27-.09.22L63.71,276l-.36-.26-.09.13.09.22-.58-.09-2.18.14-.22-.05-.45-.27-.44.27h-.8l-.36-.35,0-.32H58l-.14.14,0,.75-1.16-.13L56.5,276l-.13-.54-.32,0-.13.22-.22.13v-.62l.09-.27-.14-1.06.14-3.21-.14-.44-.09-1.07.18-2.18v-1l-.22-.85.13-2.09.14-.53-.18-3.07.13-1.11,0-1-.18-.4.22-1.6-.09-1-.13-.22.09-.54.18-.44-.14-.27-.09-.53.23-1,0-.22-.18-.13,0-.23.13-.89,0-1.55.18-.49-.23-1.07.09-.58.14-.18-.18-.53,0-.89.09-.27.14-.13-.18-.53.18-2.14.22.05,1.07-.14.8.05.22.13.27,0,.4-.27.58.09.44.22,1.65-.4.13.18.22.09,1.07-.27Zm-7.65,21.71.22.13.22-.13.13-.27-.26-.09-.23.09ZM56,245h.23v-.35H56Zm.23,4,0-.26-.27-.14,0,.27ZM56,252.19l.14.27.22-.09,0-.27h-.23Zm.32,1.83-.05-.27L56,253.7l.09.23Zm.17,3.51-.13-.22-.36-.05.18.23ZM56,272.34l.23,0,.18-.4H56.1l-.09.18Zm.23-29,.44-.31-.22-.18-.31-.08-.09.44Zm.18,18-.36-.18,0,.22.18.13Zm-.18,5.65,0-.27-.13-.22-.09.31Zm-.09,3.24.27.09-.18-.26Zm.35-14.23v-.22l-.17-.05-.05.18Zm.67,10.1.31-.18-.18-.4-.22-.09-.09.22v.31Zm-.18,1.47h.18v-.23h-.18Zm.09,7.74.49-.09-.09-.27-.22-.13-.13.17Zm.85-4.9h.22l.09-.26h-.31Zm1.91,5.25H60l.09-.18h-.18Zm1.56-16.06.35.09-.13-.27Zm2.58-.18h-.49l.09.27.22,0Zm-.31,14.91.17-.14,0-.13-.13.18Zm.57-31.94.41-.23.08-.22-.26-.13-.14.26Zm.41,16.46.17-.14.09-.26-.18-.23-.22,0-.22.13,0,.22.09.18Zm-.18,16.06.18.08.08-.17-.17-.09Zm1.24-31.63,0-.36-.18-.13-.13.17.09.23Zm.85,15.17-.09-.18-.22-.09.09.22Zm-.31,16.46h.22v-.18H66.2Zm.71-.76.53.18-.09-.31-.22-.05Zm.18-14.24.26,0,.09-.27-.26.09Zm.84-1.06-.09-.4-.09.22Zm.89.84.54-.09v-.18l-.18-.08-.22.13Zm.09-16.73.13.23.23-.14-.18-.13Zm.27,31.1h.18v-.18h-.18Zm1.15-31.94H70l.18.13Zm.4,32.21h.94l-.62-.27-.32-.31-.08.31ZM71.4,242l.22.36.23.08-.09-.26.13-.18.27-.09-.27-.09-.22.09Zm0,16.55.27-.13v-.27l-.27.09Zm.09,16.33h.27l-.27-.18Zm.18-16,.4-.22.09-.26-.31,0Zm.67.49.08.27h.27l.14-.18-.23-.17Zm.57-16.14.09-.32-.17-.17-.09.26Zm.67-.89h.18v-.18h-.18Zm.58.89.27.08.31-.08v-.32l-.27-.09-.18.18Zm0,16.32.49.22-.09-.22.09-.44-.31-.14-.14.27Zm0,14.55.09.27.31,0,0-.31-.27-.09Zm0,1.51.18.14.09-.23-.18-.09ZM75,258.38l.08.4.23,0,.09-.18v-.26l-.23,0Zm.66-15.31h.22v-.18h-.22Zm.09,30.83H76v-.22h-.22Zm1-31.67.22.13.36,0-.09-.49-.22-.09.09.31-.18,0Zm.4,32.92.18-.14-.18-.17Zm.36-31.94.22.08H78l.22-.08v-.41l-.22-.08-.31,0-.18.13Zm0,30.6,0,.27.13.18.49.13.09-.58-.22-.13h-.31Zm1,.94v.31l.44.09.13-.4-.31-.09Zm.35-32.35.18-.13,0-.22-.09-.22-.22-.09-.13.13-.09.27.09.22Z"/><path class="cls-1" d="M100.76,270.74l.41-.13-.09.4.49,0,.53.23,0,.26-.18,0-.14.18.27,0,.4-.13h.27l.49.17.89.54.26,0,.27.49h1.07l.09.4.22,0,.58.09,1,.4.22-.09.94.09-.09.18.09.22.13-.22.71.08.36,0-.09.58h.31l.36-.18.22.05-.22-.45.58.09,1-.05,1-.22,1.07-.13h.66l.45-.31,2-.85.27.4.27-.09,0-.57.85-.49.49-.18,3.11-2.85.71-.8.18-.58.4-.35.27-.49h.8l-.31.4.09.26.4.27.17-.13.18-.4,1.16.75-.36,1.16-2.93,3.07-1.6,1.42-1.61,1-.48-.09-.14.13-.13.45-.49,0-.85.49-.75.31h-.31l-.49.31-.27,0-.18-.14-.35.32-.45.22-.84.13v-.67l-.23.05,0,.71-1.11.18h-2.09l-1.61.09-.44-.23-1.56,0v-.31l-.22-.36-.18-.09-.22.09-.13.23-.23.13-1.87-.58-.08-.22.08-.36h-1l-1-.4-1.55-.93v-.49l-.09-.18-.76.09-.18-.18,0-.58-.18-.17-.27,0v.22l-.26-.09-.14-.22-.26,0,.09-.63-.09-.26-.27.09,0,.31-.66-.4.18-.27h-.45l-.49-.89v-.27l-.8-.71-.09-.31-.18-.18-.49-.22v-.27l-.17-.44-.85-1.38-.09-.67L93.6,265l-.18-1-.31-.71,0-.49.13-.27-.09-.26-.44-.32V261h.31l.35-.35-.8-.18,0-.31-.14-.93.58-.14-.31-.31-.27,0v-.71l.14-.58.22-.4.31-.22-.13-.18-.45.09.14-1.06.44-.18-.13-1.43.18-.49.17-.17-.13-.49.4-.4.27-.09-.27-.27,1-1.91.53-1.25.36,0,.22.13.09-.22v-.31l-.09-.23.58-.93.62-.8,1.52-1.47,2-1.69h.31l.27.18v-.45l.26,0,.14-.13,0-.23.54-.13.13,0,.4-.35.93-.49.8-.31.23,0,.13.14.36-.27.89-.45.48-.13h1.16l.18-.18.44-.18.49,0,.72.31.22-.09.22-.4h.62l.27-.09.36.58.22-.09.18-.49.66,0,.85.53.27-.09.13-.18.27,0,1,.31.58-.09.49.13,1.92.85.84.18-.18.44.18.14.27-.05v-.27l1.91,1,.8.62.45.67h.31l.58.35-.05.36.14.22.44-.09.31.4v.36l.22,0,.27.09.27.4-.09.45.4.31.27.09L126,248.9l.23.44v.27l-.14.27-.18-.09,0-.22-.18-.09-.26.09v.66l-.09.23-.32-.14h-.22l-.8.49-.58-.53-.57-.89.4-.45,0-.31-.27.05-.17.44-.23-.09-.57-.49.4-.75-.27,0-.49.31-.49-.49.27-.4-.09-.26-.22.09-.14.22-.22.09-1.65-1.38-1-.53-.18-.41h-.58l-.4-.17,0-.18.13-.18-.09-.22-.31,0-.44.23-2-.67-.44-.27-.54.13h-.35l-.58-.17-.14-.14-.26.14h-.49l-.22-.09-.54,0-.49-.31-.18.18-.8.22-.26-.09-.32-.4-.17.58h-.49l-1,.36-.53.09-.53,0-.36.36-1.6.62-.45.27-.57-.09-.18.18,0,.26-.13.22h-.67l-.18.18v.36l-1.69,1.38-.75.75-.67.89-.53.94-.27.13-.4.45v.53l-.36.4-.71,1.56-.49.62v1.16l-.18.49-.26.4.17.93-.26,1.65v.53l.49,3.25.26.4-.31.58.36.22.22.44v.4l.36.36.8,1.38-.18.76.18.22.49-.05.49,1.07.31.05.18.13.17.44v.32l.27,0,.49.27.31.4,0,.26.35,0,.4.31,0,.18Zm-6.89-16-.09-.22-.27-.09.09.27Zm-.36,8.77.27.08.36-.4-.18-.13-.13.18-.23,0Zm.09-3.74.27.13-.09-.22Zm.85-8,.22,0,.27-.36h-.27l-.18.13Zm0,14.64h.22v-.18h-.22Zm.09-9.48.22.09.09-.18-.18-.09Zm.22,4,.18.08.09-.17-.18-.09Zm.67-6.41h.17l-.08-.18-.18.09Zm.57-2.09-.31-.09.09.18Zm.27-4.32.27.09.27-.13.13-.22-.27-.09-.31.09Zm1.34,22.38h-.23l-.13.22.22,0ZM97.78,247l0-.18-.22-.09,0,.22Zm-.26,21.84.26,0,.14-.26-.27,0Zm.84-22.6.23-.27-.27-.09-.14.18Zm.8-.93.18-.18-.09-.22-.09.17Zm.09,25.62.23.05.13-.23h-.27Zm.09-24h.18v-.18h-.18Zm.58-2.67.09.31.18.09.22,0,.18-.17.09-.27-.23-.09Zm.27,27.18.09.31.22.13.09-.22v-.35l-.23.09Zm1.15-25.94h-.26l.13.18Zm-.09,27.19.18-.09.09-.23-.22.09Zm1.43,1.91.49.09-.09-.22-.27-.05Zm.31-2.23h.18v-.17H103Zm1-29.45.09-.22-.09-.35h-.35l.17.44Zm-.18,30.61h.49l0-.27-.18-.13-.13.18Zm.67.76.27-.09-.18-.18Zm.49-30.79.09-.09-.18-.22Zm.58-.89.44.22v-.35l-.17-.13-.27.13Zm.18,32.83h.18l.08-.31h-.17Zm.58-33.76.31-.05.18-.22-.45.05Zm.66,1.64-.4-.13.09.27.18,0Zm1.52-1.46,0-.27-.22-.18v.31Zm0,34.65.31,0,.09-.27-.27.09Zm.75-34h.22v-.17h-.22Zm.8,34,.27-.09.18-.18v-.31l-.27-.09-.22.36Zm.09-34.74h.18v-.18h-.18Zm1.83,32.7h.17l.09-.18-.26-.09Zm.75,1,.18.09-.18-.26Zm.85-33.85.58.18v-.27l-.45-.09Zm.58,32.88-.14-.14-.09-.27-.26,0,0,.22.14.27.26.09Zm.4.8h.17V275h-.17Zm.84-33.59h.18v-.18h-.18Zm.4.27H116l.09-.27h-.18Zm.58.57.09.27.22.13.22-.09,0-.31-.22-.09Zm.09,30.7.09.31.27.09.08-.4-.22,0Zm.36,2.31.08-.4-.22.09,0,.18Zm.48-.93.32-.13.17-.27-.22-.09-.22.09-.13.18Zm1.25-29.85h-.27l.14.13Zm.4,29.63.67-.18-.58-.18Zm.53-30.61.27-.18-.13-.18Zm.58,29.67h.22l-.13-.22-.18.13Zm0-1.64h.22l.09-.18h-.17Zm.14-27,.22-.09,0-.22-.09-.23-.17-.13-.09.22,0,.18Zm.93.35.18.14.09-.23-.18-.08Zm0,27.85.27-.09v-.31l-.27-.09Zm.76-1.51v.18l.09.09h.22l.09-.09-.09-.31H122Zm.09-25.36h.22v-.18H122Zm.57,23,.32-.05.26-.44-.26-.09-.18.27Zm.67-21.62.09-.23-.18-.4-.26,0,.13.58Zm.31.49v.26l.49.09.18-.13.09-.22-.22-.09h-.32Zm.36,2.35.26-.13.14-.31-.14-.18-.53-.13-.09.22V250l.14.18Zm-.36,18,.14.05.62-.14,0-.31-.13-.18-.22,0-.18.09-.13.22Zm0,1.51.09.27.27.05v-.32l-.27-.09ZM124.3,249l.18.18.57.09.14-.31-.09-.27-.18-.09h-.27l-.22.14Zm.67,20.24.08-.48-.08-.23-.18-.13-.18.49.13.27Zm.75-.93.18-.13v-.49l-.13-.22-.23-.05-.13.53.09.27Z"/><path class="cls-1" d="M168.7,245.52l.18.13-.14.18,0,.18.49-.09v-.31l-.31-.36-.27-.09-.09-1.06.22.08.22-.08.14-.18-.58-.71-.09-.49.09-.36.53,0,.23-.23-.14-.22-.53-.27.13-.22.49-.13.31,0,.22.14.54-.18.62-.05.45.23v8.49l.22.4-.22,1.07,0,1.74-.22.71.18.93v2.36l-.18.76.22,1.91v6.58l-.4.49.13.09h.23v1.16l-.09.22-.18.13.27.4v4.19l-.18,3h-.94l-.13-.54-.18-.13-.26,0-.23.36V276H169l-.18-.49v-.36l.44-.13.14-.18-.14-.22-.53-.14-.09-.66.18-.49.31-.4-.49-.36,0-.58.45-.84-.45-.85,0-.62.49-.09-.14-.49-.13-.18-.22-.09,0-.31.14-.44.26-.36,0-.53-.4.22,0-.36.09-.53.36-1.11h-.4v-.67l.4-1.07-.49-.4.13-.35-.09-2.36-.4-.31h-1.73l-1-.18-.14-.22-.49.4-.58-.05-.44-.22-.13.22-.23-.09-1,.14-.31-.05-.27-.17-1,.22-.49-.05L160,260l-.54.22h-.84l-.45-.31-.22.09-.22.4-1.16-.09-.31-.31-.18.17-.09.32h-.62l-.49-.18-.31-.31-.67.31-.53,0-.4-.22-.13-.22-1.07.35-.53,0-.41-.31-.4.18-1,.22-1.16-.05-.75-.17-.49.22h-1.6l-.4.27V268l-.58.22-.18.22.13.23.18,0,.45-.27.09,4.41-.18,2.89-.27-.31-.22-.09-.18.13-.13.54-.85.09L143,276l-.22-.67-.26,0-.09.14-.14-.58-.09-2.94.49.27.23-.18-.09-.22-.45-.13-.18-.14,0-.53.18-.89h.22l.22.18.05-.27-.23-.18h-.26l-.09-.27.09-.88.44-.32h-.35l-.09-.26.09-.85-.09-.31h.44l.18-.09,0-.4-.17-.18h-.49v-1.15l.22-.09h.31L143,265l-.57-.18,0-.44-.18-.72,0-.31.4,0,.18-.22-.58-.4.09-1.25.57-.27-.13-.17h-.44l-.09-1.16.26-.62.18-.14-.22-.09-.22.09,0-.49-.09-1.15,0-1.12.09-.44.26-.36-.13-.13-.22,0-.14-1.82.18-1,.31-.36.23-.13-.58-.22V250.1l.09-1,.35-.63.22-.13-.17-.22-.49-.09,0-.62-.09-.23.23-.13.49,0v-.58l-.58.09,0-.63.09-.89.31-.31-.49-.26.18-.49,0-.58.4-.18.09-.22-.14-.27h-.44V241.6l1-.35h.53l1.16.18v3.24l-.4-.17h-.27l0,.17.14.14.09.26.49-.22v7.3l-.18-.09-.05-.22-.44.48.18.14.49-.14v4.28l.26,1h2.67v.32l.4-.27.54-.05,1.29.32.75-.27.54.13.22.14.27-.14.13-.26.22.08.85-.08.13.22.27,0,.27-.09.17-.17.94.08.26.14.14.18.22-.18.44-.18.45,0,1.56.13.58-.13.17.4,1.34-.36.44.13.14.23,1.06-.27.49,0,.49.31.23-.13,0-.27,1.16-.08.17.17.09.31.4-.4,1.2.09.23.14.22-.14.58-.09h1.15l.45-.13.18-.13-.14-1.65.09-.53.23-.31.22-.09-.58-.4.22-1.56-.13-1,0-.23.23-.08.13-.18-.22-.18-.27-.49v-.27l.18-.4v-.26l.66-.18-.31-.36,0-.22-.4.27v-1.34l.58-.13.09-.27-.23-.09h-.31l-.22-.09,0-.49-.08-.53,0-.49Zm-26,28.83.18-.14.05-.26-.09-.23-.23-.09-.13.14-.09.26.09.23Zm-.26-20.2.35.09.09-.31-.18-.18-.17.13Zm.17-3.47.27-.09v-.27l-.18-.17-.09.22Zm.58-8.5.49.22.27-.13-.13-.4-.18-.13-.27-.05-.09.27Zm0,14.55.09.09.4-.18-.31-.09Zm0,14.64.58.08-.09-.26h-.31Zm0,3.33.27.4h.49l0-.31-.17-.13-.27-.05Zm.09-30.6.22-.14v-.31l-.13-.13-.09.26Zm.09,1.91.36-.31,0-.23-.09-.22h-.31l0,.36-.14.22Zm.31,23.62-.22-.18-.18.09.22.18Zm-.31-7.56.45.18.13-.18-.45-.18Zm.4,2h.13l-.13-.45-.09.23Zm.18-1,.44.22.32,0,.08-.31-.13-.18-.53.09Zm.84-20.29-.22-.09-.22.09-.13.27.13.18.27,0,.17-.13Zm-.08,4.23.08-.58-.22-.09h-.31l0,.49.14.13Zm-.45,1.24v.36l.27.09.26-.09-.08-.49-.27,0Zm.09,22.56.09-.58.18-.09h-.27l-.09.44Zm.18,1.73-.18-.67-.09.58Zm-.18,1.83h.36l.08-.58-.44-.14-.09.49Zm.27-23.76.22-.36-.09-.22-.22-.09-.23.4,0,.18Zm.09,16.37.08-.44-.17-.18-.27,0,0,.27.14.27Zm-.27-1.64.27-.09.08-.27-.26-.09-.18.18Zm4-6h-.26l.13.18Zm.49-1.07h.18v-.18h-.18Zm1.16,1.47-.05-.22-.35-.27,0,.27.23.22Zm1-1.25-.09-.31-.26-.09,0,.27.13.18Zm.8,1.34.09-.49-.09-.27-.22-.13,0,.44.08.27Zm1-1.07-.18-.67-.09.27,0,.31Zm.75.76.22-.27-.4-.09.05.27Zm.67-.67.27.09.13-.27h-.27Zm3.47-.27.27,0,.22-.36-.31-.09-.09.23Zm1.33,1.16.09-.49-.09-.18-.31,0-.13.13.18.4Zm3.25-.13.31,0,.27-.13-.09-.22-.22,0-.22.13Zm.85-1.12h.22l0-.17-.13-.14Zm1.73.09.27.05.35-.22.23.17-.05-.26-.4-.23-.31.27Zm4.49,11.66.27,0,.13-.22h-.26Zm.18-19.62.27,0,.22-.13.09-.27-.36-.22-.13.27Zm0,16.19.31.09.09-.18-.22-.08Zm.31,7.34-.31-.09.09.27.31.05.14-.27L170,274Zm-.17-30.87.26,0,.18-.18,0-.23-.14-.13h-.26l-.09.31Zm.35,3.43-.13-.32-.22,0,.17.09Zm0,14.36-.18-.17-.17.09.17.17Zm-.35,4L170,265v-.22l-.14-.18,0,.27Zm.08,3.33v.23l.09.09h.18l.09-.09v-.23l-.09-.08h-.18Zm0,3.74h.23l.13-.27h-.27Zm.18-18,.18-.13-.18-.18Zm.4-6.59.31-.08.36.35.09-.27-.36-.4-.22-.08-.13.22Zm0,5.52.27.09.22-.09.09-.27-.27-.08-.17.13Zm0,16.46.36.09v-.27l.22,0,.09-.18-.49.22Zm0,5.16V275l.58.09v-.31l-.35-.18Zm.18-32.34.49-.13.09-.23-.31-.26-.27-.05V242l-.09.18Zm-.09,1.25.09.26.27,0-.09-.36Zm.49,5.87-.18-.22v-.18h-.22l-.09.26.18.23Zm-.49,6.94h.18l.09-.18h-.18Zm.09,7.87.27,0,.13-.18h-.27Zm.49,9,.05-.27-.36-.4-.09.27.13.27ZM170.79,246l.31,0,.09-.22-.31-.09Zm.09,14.46h.22v-.23h-.22Zm.31,5.51,0-.26-.27-.09v.26Z"/><path class="cls-1" d="M198.11,241.47l1-.27.49.05.45.22.49-.13.58-.05.75.18.49-.22.54-.05.71.27.18-.13.57-.18.89.13.18.18.18-.13.84-.14.81.27.8-.27.8.14.17.13.45-.18,1.07.09.22.09.27-.09,0-.31.54.18.93.13,1.47-.09.26.71,0,.54-.31.35.31.72-.13.26h-.31l-.36-.31-.36.27-1.06.22-.09-.31-.18-.18-1.07.45-.49,0-.27-.18-1,.27-.72-.22-1.38.31-.08-.22-.49-.27-.27.13-.13.27-.23-.09-.8.09-.09-.4-.26.09-.31.31-1.16-.18-1.34.18-.66-.49-.4.31-.49.14-1.65-.09-.71.22-.49-.49-.31.4-.53-.09h-2.5l-.44.22-.27.4-.18.49,0,.54.13.84h-.66l.08.27.18.18.23-.09.17.44v1l-.22,0-.44-.18,0,.27.18.18.44,0V250l-.09.22-.66.09.13.22H193l.23.13-.14.58.14,1.07-.23-.09v-.31h-.31l-.35.22.13.22.22.14.23-.09.08.22v.94l-.35.09.22.35.13.49.09,2,.27.66.18.18.75.22.36,0v.4l.18-.18,1.15-.31v.27l.27.31.27-.09.31-.4.8.13.18-.13.35.49.23,0,.09-.17v-.27l.53.09.53-.09.45.49.4-.49,1,.22.14.18h.35l.4-.31.27-.09,1.11.27.45-.27.93.18.4.31.13-.18.54-.22.62,0,.22.14.09.22.45-.27.53-.13.58.09.35.31.18-.22.49-.14,1.25.36.13.53v.63l-.44-.09-.18.13-.09.22.13.23.23.13.35,0-.13.23-.45.22h-.26l-.32-.27-.48.22-.54.05-.71-.27-.31.09-.45.27-.49,0-.57-.49-.58.36h-.36l-.22.13-.22-.09-.23-.31-1.06.31-.58-.09-.4-.31-.45.27-.31.09h-.58l-.26-.09-.18-.18-.76.27-.58-.14-.22-.13-.8.31-.58,0-.44-.27-1.56.31-.53-.22-1,.4-.58-.09-.53.49-.13,1.16.09.62-.23.13-.66.09.09.31.17.09.49.05v1.24l-.22,0-.22.44h.22l.18.63-.05.62-.44.09.13.22.4.27,0,.8-.22.4-.18.13.35.76-.13,1.07.13,2-.09.58.36.35,1,.31.53.09h4.32l2.13,0,.8-.22.45.26,1.16-.22.53.09.22.13.22-.13.58,0,1.11.18.49-.09h3.3l.84-.17.45.26,1.15-.18,1.34.18,0,.8.27.27-.13,1.11-.18.49-1.16.09,0-.49-.32-.27h-.31l-.18.14v.31l-.08.22-.67.09-.54-.58-.22-.09-.13.05-.13.22-.05.4-.58,0-.22-.09-.22-.45-.23.49-.22,0-.89.09-.44-.14-.14-.18-.75.32H206l-.49-.23-.58.27h-.84L204,276l0-.54-.66.23.22.44h-1.25l-.66-.76-.23.18.27.4,0,.18-.23,0-.49-.08-.62,0-.09-.49-.22-.18-.18.18.09.27-.09.22-1.47-.18-.35-.26-.09.13.09.22-.58-.09-2.18.14-.22-.05-.45-.27-.44.27h-.8l-.36-.35,0-.32h-.32l-.13.14,0,.75-1.16-.13-.13-.22-.14-.54-.31,0-.13.22-.22.13v-.62l.08-.27-.13-1.06.13-3.21-.13-.44-.09-1.07.18-2.18v-1l-.22-.85.13-2.09.13-.53-.17-3.07.13-1.11,0-1-.18-.4.22-1.6-.09-1-.13-.22.09-.54.17-.44-.13-.27-.09-.53.22-1,0-.22-.18-.13,0-.23.13-.89,0-1.55.17-.49-.22-1.07.09-.58.13-.18-.17-.53-.05-.89.09-.27.13-.13-.17-.53.17-2.14.23.05,1.06-.14.81.05.22.13.27,0,.4-.27.57.09.45.22,1.64-.4.14.18.22.09,1.07-.27Zm-7.66,21.71.23.13.22-.13.13-.27-.26-.09-.23.09Zm.09-18.2h.23v-.35h-.23Zm.23,4,0-.26-.27-.14.05.27Zm-.23,3.25.14.27.22-.09,0-.27h-.22Zm.31,1.83,0-.27-.27-.05.09.23Zm.18,3.51-.13-.22-.36-.05.18.23Zm-.49,14.81.23,0,.17-.4h-.26l-.09.18Zm.23-29,.44-.31-.22-.18-.31-.08-.09.44Zm.17,18-.35-.18,0,.22.18.13Zm-.17,5.65,0-.27-.13-.22-.09.31Zm-.09,3.24.26.09-.17-.26Zm.35-14.23v-.22l-.18-.05,0,.18Zm.67,10.1.31-.18-.18-.4-.22-.09-.09.22v.31Zm-.18,1.47h.18v-.23h-.18Zm.09,7.74.49-.09-.09-.27-.22-.13-.14.17Zm.85-4.9h.22l.09-.26h-.31Zm1.91,5.25h.22l.09-.18h-.18Zm1.56-16.06.35.09-.13-.27Zm2.58-.18H198l.09.27.22,0Zm-.32,14.91.18-.14,0-.13-.14.18Zm.58-31.94.4-.23.09-.22-.26-.13-.14.26Zm.4,16.46.18-.14.09-.26-.18-.23-.22,0-.22.13,0,.22.09.18ZM199,274.84l.17.08.09-.17-.18-.09Zm1.24-31.63,0-.36-.18-.13-.14.17.09.23Zm.85,15.17-.09-.18-.23-.09.09.22Zm-.32,16.46H201v-.18h-.23Zm.72-.76.53.18-.09-.31-.22-.05Zm.17-14.24.27,0,.09-.27-.27.09Zm.85-1.06-.09-.4-.09.22Zm.89.84.53-.09v-.18l-.17-.08-.23.13Zm.09-16.73.13.23.22-.14-.17-.13Zm.27,31.1h.17v-.18h-.17Zm1.15-31.94h-.31l.18.13Zm.4,32.21h.94l-.63-.27-.31-.31-.09.31ZM206,242l.22.36.22.08-.08-.26.13-.18.27-.09-.27-.09-.22.09Zm0,16.55.27-.13v-.27l-.27.09Zm.09,16.33h.27l-.27-.18Zm.18-16,.4-.22.09-.26-.32,0Zm.66.49.09.27h.27l.13-.18-.22-.17Zm.58-16.14.09-.32-.18-.17-.09.26Zm.67-.89h.18v-.18h-.18Zm.58.89.26.08.32-.08v-.32l-.27-.09-.18.18Zm0,16.32.49.22-.09-.22.09-.44-.31-.14-.14.27Zm0,14.55.09.27.31,0,0-.31-.26-.09Zm0,1.51.18.14.08-.23-.17-.09Zm.84-17.21.09.4.22,0,.09-.18v-.26l-.22,0Zm.67-15.31h.22v-.18h-.22Zm.09,30.83h.22v-.22h-.22Zm1-31.67.22.13.36,0-.09-.49-.22-.09.08.31-.17,0Zm.4,32.92.18-.14-.18-.17Zm.35-31.94.23.08h.31l.22-.08v-.41l-.22-.08-.31,0-.18.13Zm0,30.6.05.27.13.18.49.13.09-.58-.22-.13h-.31Zm1,.94v.31l.45.09.13-.4-.31-.09Zm.36-32.35.18-.13,0-.22-.09-.22-.22-.09-.13.13-.09.27.09.22Z"/><path class="cls-1" d="M233.43,241.78l-.58.05-.18.09.18.53.49,0,.18.09-.09.54.09.8-.27-.09-.18-.18-.31,0,.09.35-.09.22.22.09h.32l.22.09-.13.8.13.45-.22,0-.23-.18-.31,0,.22.44.54.14v3.25l-.31,0-.27.13-.18.23.22.17.54-.08v1.51L233,251v.31l.18.14.4,0-.09.31-.18.22.22.45v.22l-.13.22-.58-.09-.09.14v.22l.76.22-.09,3.12-.53-.09-.23.09v.26l.18.18.45.05.22-.09v1.42l-.58-.18-.18.18.18.58.27-.09.13-.13.18,0-.09.58.09.84-.67-.08.09.31.58.18-.09,1.69-.13-.23-.27-.09-.27.14.09.26.22.14.45.09-.09.26.18,1.07-.27-.13-.67.13.09.27.18.18.27,0,.31-.09v1.43h-.27l-.22-.18-.18.18-.09.26.14.18.53,0,.09,1.33-.54,0,0-.27-.27.49.23.09.44-.09.13.18.05,1.33-.49-.13-.18,0,.09.31.58.27-.09.8.09,1-.09,1.43.27.4h8.67l2-.09.09.27,2.13-.18,2.45.09.22-.14.58-.09.62,0,.49.18.49-.18,1.29.22.71,0,.14,1.64-.22,1h-1.07l-.09-.23v-.31l-.18-.13-.22,0-.18.71-1,.14-.14-.18-.17-.71-.27.09-.18.22v.36l-.31.08-.93-.08-.36-.32,0-.17-.17.09-.09.4-.85.17-.31-.09,0-.53-.18-.13-.09.4-.27-.09v.35l-2.22-.17-2.09.09-.54-.09-.13-.18-.4.35-.4-.08h-.53l-.32-.4-.22-.14-.31,0-.31.58-.94-.09v-.31l-.13-.23-.27,0V276l-1,.22-.36,0-.22-.49-.18-.18-.13.49-.14.18h-2.89l-.13-.49-.14-.18-.4.22-.26.4-.23.09-.35,0-.18-.85.53,0,.14-.14-.09-.4H231l-.18.14-.18,0,.09-1.11-.13-1.6.13-.54.27.09.18-.09.22-.49-.09-.17-.58.17-.09-.26v-1.16l.27.09.49-.58-.22-.09-.27.09-.09.22-.13-.17-.05-.49.09-.8.27.08.13-.08.27-.45-.22-.09-.45.27v-1.74l.36.32.17-.18-.08-.63-.23.09,0,.23-.18.08v-3.42l.45-.31-.18-.14-.27,0,0-1.56.13-1.69.4-.22h.27l-.18-.22H231l-.27.13-.09-.27.18-1.33.27-.05.22-.17-.13-.18-.45.18v-1.78l.18-.4-.14-.18-.08-.53,0-.27.18-.18-.18-.93v-4.59l.31.27h.27l.18-.27-.05-.22-.4-.31-.22,0-.09-1.42.18.09,0,.27.14.09.09-.23-.09-.26.09-.27h-.36l-.13-1.29.08-1.6,0-.76.18.14v.31l.09.22h.26l.32-.27-.32-.35-.26-.14.09-.26.22-.14h.27l.48.22.23-.13h.84l.18.13Zm-2.31,2.49.22-.13.09-.27-.09-.26H231l-.09.22v.31Zm-.18,7.08.18.13.09-.22-.18-.09Zm.18,3.82.13-.44-.22-.14-.09.45Zm.09,5.65.22-.49.18-.18-.27-.08-.22.13-.14.22v.27Zm0,3.56,0-.22L231,264l-.05.27Zm-.18,9.08h.18v-.18H231Zm.66-21.22.58-.09-.09-.23-.22,0-.18.13Zm.58-9.48H232l-.14.31.18.18h.18l.18-.18Zm-.18,2.4.36-.4-.44-.18-.09.18V245Zm-.17,14.64h.17v-.22h-.17Zm0,14.5.22-.18V274l-.22-.08Zm.09-27.36.17.18.18,0,0-.27-.18-.05Zm0,1.65h.26l-.26-.18Zm0,2v0Zm0,19.89.35.13-.09-.49-.18-.09Zm.66-22.56.27.09.31-.09v-.4l-.49.18Zm.94,27.85.58.09v-.31l-.23-.05-.22.09Zm3.56-1.33.17-.41-.26-.08-.09.26Zm2.67.66h.26l-.18-.22Zm.93-.8.4.14,0-.27-.23-.05Zm1.16,1,.09-.22-.14-.18-.22-.09v.27l.09.18Zm4.58-1.16-.27-.17.18.44Zm-.18-.17h.18v-.23h-.18Zm2.31.35,0-.49-.18-.13-.27-.05.09.49.18.14Zm1.43-.35h.18v-.23h-.18Zm.09.35h.17v-.18h-.17Zm.75,1h.31l-.08-.18h-.23Zm.8-.84h.36l.09-.58-.45-.14-.08.49Zm.76.66.58.18.09-.27-.09-.31-.49.14Z"/><path class="cls-1" d="M276.63,241.47l1-.27.49.05.44.22.49-.13.58-.05.75.18.49-.22.54-.05.71.27.18-.13.58-.18.89.13.17.18.18-.13.85-.14.8.27.8-.27.8.14.18.13.44-.18,1.07.09.22.09.27-.09,0-.31.54.18.93.13,1.47-.09.27.71,0,.54-.31.35.31.72-.13.26h-.31l-.36-.31-.35.27-1.07.22-.09-.31-.18-.18-1.07.45-.49,0-.26-.18-1,.27-.71-.22-1.38.31-.09-.22-.49-.27-.27.13-.13.27-.22-.09-.8.09-.09-.4-.27.09-.31.31-1.16-.18-1.33.18-.67-.49-.4.31-.49.14-1.65-.09-.71.22-.49-.49-.31.4-.53-.09h-2.49l-.45.22-.27.4-.17.49-.05.54.14.84H271l.09.27.17.18.23-.09.18.44v1l-.23,0-.44-.18,0,.27.18.18.45,0V250l-.09.22-.67.09.13.22h.54l.22.13-.13.58.13,1.07-.22-.09v-.31h-.32l-.35.22.13.22.22.14.23-.09.09.22v.94l-.36.09.22.35.14.49.09,2,.26.66.18.18.76.22.35,0v.4l.18-.18,1.16-.31v.27l.26.31.27-.09.31-.4.8.13.18-.13.36.49.22,0,.09-.17v-.27l.53.09.54-.09.44.49.4-.49,1,.22.14.18h.35l.4-.31.27-.09,1.11.27.45-.27.93.18.4.31.14-.18.53-.22.62,0,.23.14.08.22.45-.27.53-.13.58.09.36.31.18-.22.48-.14,1.25.36.13.53v.63l-.44-.09-.18.13-.09.22.14.23.22.13.35,0-.13.23-.44.22h-.27l-.31-.27-.49.22-.54.05-.71-.27-.31.09-.44.27-.49,0-.58-.49-.58.36h-.36l-.22.13-.22-.09-.22-.31-1.07.31-.58-.09-.4-.31-.45.27-.31.09h-.57l-.27-.09-.18-.18-.76.27-.57-.14-.23-.13-.8.31-.58,0-.44-.27-1.56.31-.53-.22-1,.4-.58-.09-.54.49-.13,1.16.09.62-.22.13-.67.09.09.31.18.09.49.05v1.24l-.23,0-.22.44h.22l.18.63,0,.62-.45.09.13.22.41.27,0,.8-.22.4-.18.13.36.76-.14,1.07.14,2-.09.58.35.35,1,.31.53.09h4.32l2.14,0,.8-.22.44.26,1.16-.22.53.09.22.13.23-.13.57,0,1.12.18.49-.09h3.29l.84-.17.45.26,1.16-.18,1.33.18,0,.8.27.27-.13,1.11-.18.49-1.16.09,0-.49-.31-.27h-.32l-.17.14v.31l-.09.22-.67.09-.53-.58-.23-.09-.13.05-.13.22-.05.4-.58,0L288,276l-.22-.45-.22.49-.23,0-.89.09L286,276l-.13-.18-.76.32h-.58l-.49-.23-.58.27h-.84l-.09-.13,0-.54-.67.23.22.44h-1.25l-.66-.76-.22.18.26.4,0,.18-.22,0-.49-.08-.63,0-.09-.49-.22-.18-.18.18.09.27-.09.22-1.46-.18-.36-.26-.09.13.09.22-.58-.09-2.18.14-.22-.05-.45-.27-.44.27h-.8l-.36-.35,0-.32h-.31l-.14.14,0,.75-1.16-.13-.13-.22-.13-.54-.32,0-.13.22-.22.13v-.62l.09-.27-.14-1.06.14-3.21-.14-.44-.09-1.07.18-2.18v-1l-.22-.85.13-2.09.14-.53-.18-3.07.13-1.11,0-1-.18-.4.22-1.6-.09-1-.13-.22.09-.54.18-.44-.14-.27-.09-.53.23-1-.05-.22-.18-.13,0-.23.13-.89,0-1.55.18-.49-.23-1.07.09-.58.14-.18-.18-.53,0-.89.09-.27.14-.13-.18-.53.18-2.14.22.05,1.07-.14.8.05.22.13.27,0,.4-.27.58.09.44.22,1.65-.4.13.18.22.09,1.07-.27ZM269,263.18l.22.13.22-.13.13-.27-.26-.09-.23.09Zm.08-18.2h.23v-.35h-.23Zm.23,4,0-.26-.27-.14.05.27Zm-.23,3.25.14.27.22-.09.05-.27h-.23Zm.32,1.83-.05-.27-.27-.05.09.23Zm.17,3.51-.13-.22-.36-.05.18.23Zm-.49,14.81.23,0,.18-.4h-.27l-.09.18Zm.23-29,.44-.31-.22-.18-.31-.08-.09.44Zm.18,18-.36-.18,0,.22.18.13Zm-.18,5.65,0-.27-.13-.22-.09.31Zm-.09,3.24.27.09-.18-.26Zm.35-14.23v-.22l-.17-.05-.05.18Zm.67,10.1.31-.18-.17-.4-.23-.09-.09.22v.31ZM270,267.5h.18v-.23H270Zm.09,7.74.49-.09-.09-.27-.22-.13-.13.17Zm.85-4.9h.22l.09-.26H271Zm1.91,5.25h.22l.09-.18H273Zm1.56-16.06.35.09-.13-.27Zm2.58-.18h-.49l.09.27.22,0Zm-.31,14.91.17-.14,0-.13-.13.18Zm.57-31.94.41-.23.08-.22-.26-.13-.14.26Zm.41,16.46.17-.14.09-.26-.18-.23-.22,0-.22.13,0,.22.09.18Zm-.18,16.06.18.08.08-.17-.17-.09Zm1.24-31.63,0-.36-.18-.13-.13.17.09.23Zm.85,15.17-.09-.18-.22-.09.09.22Zm-.31,16.46h.22v-.18h-.22Zm.71-.76.53.18-.09-.31-.22-.05Zm.18-14.24.26,0,.09-.27-.26.09Zm.84-1.06-.09-.4-.09.22Zm.89.84.54-.09v-.18l-.18-.08-.22.13Zm.09-16.73.13.23.23-.14-.18-.13Zm.27,31.1h.18v-.18h-.18Zm1.15-31.94h-.31l.18.13Zm.4,32.21h.94l-.62-.27-.32-.31-.08.31Zm.67-32.3.22.36.23.08-.09-.26L285,242l.27-.09-.27-.09-.22.09Zm0,16.55.27-.13v-.27l-.27.09Zm.09,16.33h.27l-.27-.18Zm.18-16,.4-.22.09-.26-.31,0Zm.67.49.09.27h.26l.14-.18-.23-.17Zm.57-16.14.09-.32-.17-.17-.09.26Zm.67-.89h.18v-.18h-.18Zm.58.89.27.08.31-.08v-.32l-.27-.09-.18.18Zm0,16.32.49.22-.09-.22.09-.44-.31-.14-.14.27Zm0,14.55.09.27.31,0,0-.31-.27-.09Zm0,1.51.18.14.09-.23-.18-.09Zm.85-17.21.08.4.23,0,.09-.18v-.26l-.23,0Zm.66-15.31H289v-.18h-.23Zm.09,30.83h.22v-.22h-.22Zm1-31.67.22.13.36,0-.09-.49-.22-.09.09.31-.18,0Zm.4,32.92.18-.14-.18-.17Zm.36-31.94.22.08h.31l.22-.08v-.41l-.22-.08-.31,0-.18.13Zm0,30.6,0,.27.13.18.49.13.09-.58-.22-.13h-.31Zm1,.94v.31l.44.09.13-.4-.31-.09Zm.35-32.35.18-.13,0-.22-.09-.22-.22-.09-.13.13-.09.27.09.22Z"/><path class="cls-1" d="M318.14,250.23l0,.32.27.13.09-.13V250l.66.4.23.54,1.37,1.6.14.26-.27.09-.13.18h.26v.31l.49-.22.45.76,0,.31.49.09v.35l.31.45.72.35v.36l.13.18.44.22.89,1.33,1.34,1.61.71,1.06.4.32v.31l.22.44-.31.18.22.13.45-.22.67.89.58.53-.09.49h.49v.27l.17.4v.31l.76.27.18.22,0,.27.36.35.49.32.49,1,1.33,1.61.76,1.06.4.36.62.89.4.36.18-.18v-.58l-.27-.4.22-1v-2.85l.09-1h.94l-.14-.22-.8-.09-.09-.27v-.53l.14-.49.22-.4-.27-.14-.09-2.18.27-2.67-.22-1v-2.67l.49-.09-.18-.22-.18-.45-.09-1.16H336l-.13-.26h-.23v-1l-.13-.22.4-.4-.18-.13-.13-.45,0-1.24.23-.05.13.23.31.13-.09-.27-.31-.35-.27-.05v-1.38l.27-.13.31,0v-.35l-.22-.09-.18.13-.18,0,.09-.54-.09-.93.27.09.4-.36-.22-.09-.27.14-.18-.05.09-.35-.13-.76,0-.31.76-.13.09-.27-.14-.18-.71.18V241.6l1.52-.26.49,0,.75.22v7l-.18-.09-.09-.22-.22-.09-.13.18.09.26-.05.36.58-.22v6.89h-.62l-.22.09.09.31.57-.22.18.18-.09.8.18.49-.09,2.27-.18-.09-.09-.49-.17.18,0,.26.4.36v1.42l-.18-.09,0-.22-.18-.09,0,.27.44.62.09,4.23v2.31l-.18.71.18,2.05-.09,4.4V276l-.18-.09-.09-.4-.31.09-.17.58h-1.16l0-.27-.09-.22-.22-.18h-.31l-.4.31-.13-.45,0-.62-.58.09-.26-.09.08-.58-.93-.66-.13-.23V273l-.27-.05-.31-.4-.18-.49-.67-.58v-.31l-.49-.09-.22-.49-.31-.4-.76-.71-.22-.49-1.51-1.73-.05-.31.14-.27-.4.13-.14-.57.14-.32-.54-.09-.4-.35v-.22l.18-.27-.18-.27-.26,0-.32.09-.31-.49-.75-.89-.09-.31-.62-.45-.27-.4-.05-.31-.49-.18-.57-1-.72-.8-.62-.53-.09-.31-.62-.89-.4-.36-.31-.44v-.76l-.22,0V257l-.27-.09-.31-.36-.09-.22.18-.18-.23-.49.14-.27-.27.14-.18.22-.49-.36.18-.57-.13-.18-.54-.09-.17-.13v-.58l-.45-.09-.31-.4.09-.27-.67-.4-.22-.44-2.76-3.34-.58-.58-.22-.53-.31-.45-.8-.75-.18.17-.13.76.13.58v.58l-.22,1.15.13,1,0,.22-.18.18.13.44.09.8-.31.49.13.09.18.4.09,1-.49.23.49.75,0,.54-.18.35-.27.05.05.49.22.4.13.49v.35h-.27l-.13.14.09.49.49.22-.09.62-.13.27-.36.35.45,1,0,.31-.49.31.22.62.27.14,0,.71-.14.49-.31.22.09.22.49.18,0,.4-.09.27-.48.58-.05.26.09.18.49,0-.22,1.15-.14.14-.22,0v.27l.13.17H312l0,.94-.27.44.31.36.09.31-.09.58-.4.36.4,1.55v.36h-.27l-.17.09-.05.22.13.22.36,0v1.15l-.31.09-.18.18.05.27.4.49,0,.31-.8.18-.13-.54-.23-.13-.17.18-.14.57-1.24-.26-.09-4.14.09-1.42-.23-.72.23-1-.18-1.16.18-.76-.23-1,0-.36.18-.35-.14-3.29.14-.54-.14-.22.14-1.65-.18-1.11.18-.49-.09-3.2.09-.49-.14-.27,0-.53.13-1.11-.13-1.07.31-.31-.18-.58v-2.54l-.22-.49.09-.26.18-.14-.14-1.06v-4.19l1.07-.31h.22l.4.31.45-.17h.22l.45.26.89,1.07-.32.27.32.27.49-.09v.31l.31.4.53.44v.49l.67.4.31.49v.27l.67.35.09.41,1.42,1.6,1.16,1.55-.09.18-.23.05Zm-8.59,1,.22,0,.27-.13L310,251l-.22.09Zm0,1.91.22,0,.14-.31-.27,0Zm.84,5.56-.08-.22-.23-.09h-.53l.13.31Zm-.84,7.16.09.27.35,0,0-.27-.18-.14Zm.36,5.65-.14-.26h-.22l.09.22Zm-.36,1.43,0,.31.18.13.54,0-.05-.31-.49-.18Zm.09-18.24,0,.22.18.13h.27l-.09-.31-.22-.09Zm.09,1.91.18.09.08-.22-.17-.09Zm.18-14.19.75,0-.31-.13v-.22l-.18-.22-.26-.05-.09.49Zm-.09,7.29h.31l-.09-.17h-.22Zm.49,10.9-.09-.17-.23-.09-.17.09.17.13Zm-.49,8.59H310l.14-.18h-.22Zm.17,6,.23-.18.09-.31-.4-.09-.09.22,0,.23Zm-.08-12.81.22.09.18-.18-.23-.09Zm0,1.51.22.09.09-.18-.23-.09Zm.4,1.82v-.26H310l.09.22Zm-.18,2.1.18-.14-.18-.13Zm.44,6.22.18.23.31.09.09-.49-.09-.23-.26,0-.14.13Zm.14-14.63.22-.09,0-.27-.17-.13-.09.22Zm.44-1.52-.18-.31-.09.23Zm-.09,5.34h.18l.13-.26h-.22Zm.58-20.95.49,0,.09-.22-.31.09.13-.35-.27-.09-.13.22Zm0,1.82h.18V244h-.18Zm3.07,2.58.18.09.09-.17-.18-.09Zm.49,2.9.18.08.22,0,0-.27-.31,0Zm2.27.08,0-.57-.22-.18,0,.58Zm1.64,1-.13.4.22.09.09-.27Zm1,1.55-.22-.13-.23.05.23.22Zm.09,1.92-.09-.31-.18-.18-.09.22.09.22Zm1.82,3.82,0-.31-.32-.09.05.36Zm1,.67.09-.09-.18-.22Zm.58-1.33h.18v-.18h-.18Zm1,1.33h.31l-.09-.18h-.22Zm.67,2.76.22.09.18-.18-.22-.09Zm.22-2h.18v-.36h-.18Zm1,2.76h-.26l-.18-.09,0,.31.27,0Zm2.81,3-.09-.18L329,265l-.18.14.18.09Zm.26,2.49.31-.14.36.32v-.32l-.4-.26-.22.09Zm1.25.75h.27l.13-.17-.27-.05ZM336,256.06v-.31h-.27l.05.22Zm-.27,5.43.58-.18.09-.27-.58.18Zm.49-3.43h.18l.09-.31h-.18Zm.09-5.82h.18V252h-.18Zm.36-6.63v.31l.35.09.18-.14v-.22l-.18-.13Zm.49,4.22-.09-.31-.23-.18h-.17l.17.14.09.26Zm-.49,6.68.09.26.31.05.18-.18-.27-.18Zm0,18.59.17.14.32,0,.09-.31-.18-.18-.23.13Zm.4-32.65.22-.18-.09-.4-.22-.09-.18.14,0,.26.08.22Zm.09,1.65.09-.41h-.49l.13.32Zm-.4,9h.35l.14-.18-.18-.09-.23.05Zm.13,2.23h.27V255H337Zm0,10.41h.18l-.09-.32Zm.18-3.25h.18v-.22h-.18Zm.49-19.22.17.09.49-.09-.09-.49-.31,0-.22.14Zm0,16.33.17-.14-.17-.13Zm.09-14.73.31.31.26-.13,0-.27-.4-.09Zm.08,5.65.4-.18-.26-.09Zm.4,16.55.09-.27,0-.31-.27-.09-.18.4.14.18Zm-.31-14.55H338v-.18h-.18Zm.4,1.74,0-.49-.18-.09-.13.27,0,.26Zm0-7.48,0-.31-.18-.18v.41ZM338,265.05l.22-.05v-.22l-.22,0Z"/><path class="cls-1" d="M220,190.23a27.68,27.68,0,0,1-6.18,7.77,29.41,29.41,0,0,1-8.82,5,51.07,51.07,0,0,1-12.37,2.76,151.27,151.27,0,0,1-16.58.79q-19.22,0-29.08-3.55a27.77,27.77,0,0,1-15.14-12.77,53.09,53.09,0,0,1-4.47-9.87,77.14,77.14,0,0,1-3-14.6q-1.19-9.21-1.71-24.08t-.52-38.3q0-23.41.52-38.16t1.71-23.95a74.25,74.25,0,0,1,3-14.48,63.93,63.93,0,0,1,4.47-10A31.49,31.49,0,0,1,138,9.15,27.89,27.89,0,0,1,146.8,4a52.07,52.07,0,0,1,12.5-2.76A154.84,154.84,0,0,1,176,.47q18.94,0,28.82,3.68A28.67,28.67,0,0,1,220,16.79a64.91,64.91,0,0,1,4.48,10,75.77,75.77,0,0,1,3,14.48q1.17,9.21,1.71,23.95t.52,38.16q0,23.43-.52,38.3t-1.71,24.08a78.75,78.75,0,0,1-3,14.6A53.77,53.77,0,0,1,220,190.23Zm-33.68-32.9c.34-1.22.69-2.8,1.05-4.73a71.86,71.86,0,0,0,.79-8.69q.25-5.79.39-15.66t.13-25.92q0-16.59-.13-26.59t-.39-15.92a72.71,72.71,0,0,0-.79-8.82c-.36-1.93-.71-3.51-1.05-4.73a7.33,7.33,0,0,0-3.16-3.82Q181,41.26,176,41.27t-7.24,1.18a6.1,6.1,0,0,0-3,3.82A18.59,18.59,0,0,0,164.56,51c-.26,1.93-.53,4.87-.79,8.82s-.44,9.26-.52,15.92-.14,15.53-.14,26.59q0,16,.14,25.92t.52,15.66c.26,3.86.53,6.76.79,8.69a18.59,18.59,0,0,0,1.18,4.73,5.63,5.63,0,0,0,3,3.69q2.23,1,7.24,1t7.11-1A6.69,6.69,0,0,0,186.28,157.33Z"/><path class="cls-1" d="M496.14,206V1h90.73V44.33H538.66v36h47.4v41.43h-47.4v38.73H586.6V206Z"/><path class="cls-1" d="M667.75,206q-.81-2.43-1.49-5.28c-.45-1.89-.94-4.78-1.49-8.67s-1.26-9.25-2.16-16.11-2-16.25-3.25-28.17q-.81-7-1.63-11.37a28.84,28.84,0,0,0-1.89-6.64,5.62,5.62,0,0,0-2.71-3,9.31,9.31,0,0,0-3.52-.67h-6.5V206H600.58V1h62q13.82,0,22.75,3.12a30.44,30.44,0,0,1,14.22,9.74q5.28,6.65,7.31,17.07a135.12,135.12,0,0,1,2,25.32,224.2,224.2,0,0,1-1.08,25c-.73,6.06-1.86,10.79-3.39,14.22a20,20,0,0,1-5.55,7.72,59,59,0,0,1-7.58,5v1.62q1.62,1.36,3.38,3a13.75,13.75,0,0,1,3.12,5.42A88.81,88.81,0,0,1,702.29,133a276.67,276.67,0,0,1,4.46,27.76q1.63,12.47,2.44,20T710.68,193q.68,4.6,1.08,7a24.74,24.74,0,0,0,1.22,4.61V206ZM655,87.94c4,0,6.78-1.67,8.4-5s2.44-9.8,2.44-19.37q0-12.18-2.85-16.25t-9.07-4.06H643.11V87.94Z"/><path class="cls-1" d="M770.24,431.47,741.86,299l-2.57,1.29c.35,2.28,3.84,131.23,3.84,131.23H700.75V232.23h42.38l0,43.57,36,7.71,37.32,148Z"/><polygon class="cls-1" points="670.17 232.05 631.91 232.05 600.63 232.05 590.29 232.05 590.05 232.05 578.7 389.85 575.8 389.85 564.01 232.05 563.68 232.05 559.8 232.05 521 232.05 490.26 232.05 468.92 431.47 510.54 431.47 510.77 431.47 522.13 273.67 525.03 273.67 536.82 431.47 537.15 431.47 541.02 431.47 579.29 431.47 579.82 431.47 610.57 431.47 620.91 431.47 621.14 431.47 632.5 273.67 635.4 273.67 647.18 431.47 647.52 431.47 690.19 431.47 670.17 232.05"/><polygon class="cls-1" points="332.62 1 317.02 1 317.02 86.84 315.99 86.92 287 1.87 287 1 263.73 1 245.59 1 245.59 207 274.76 207 287 207 287 121.16 288.04 121.08 317.02 206.13 317.02 207 330.99 207 358.43 207 358.43 1 332.62 1"/><polygon class="cls-1" points="377.78 438.99 353.54 411.22 419.99 275.19 368.12 287.46 358.91 248.54 451.91 226.54 474.48 254.78 410.32 386.12 807.24 255.01 819.78 292.99 377.78 438.99"/><path class="cls-1" d="M748.08,204.13V47H716.76V4.89h104V47H789.4V204.13Z"/><path class="cls-1" d="M67.44,128.61c0,4,.07,7.24,0,8.33q-.14,4.6-.39,8.15a63.23,63.23,0,0,1-.79,6.45,29.26,29.26,0,0,1-1.58,5.52q-1.57,4.49-9.47,4.48c-4,0-6.84-.35-8.42-1.06a5.53,5.53,0,0,1-3.16-3.68,23.29,23.29,0,0,1-1.18-5c-.27-1.92-.53-4.82-.79-8.68s-.44-9.12-.53-15.79S41,111.81,41,100.76q0-16,.13-26c.09-6.67.27-11.88.53-15.66s.52-6.57.79-8.41a23.33,23.33,0,0,1,1.18-4.87,6.09,6.09,0,0,1,3-3.82c1.48-.79,3.9-1.18,7.23-1.18q10,0,11.05,5c.18.88.4,2,.66,3.29a49,49,0,0,1,.66,5.39c.17,2.28.3,5.18.39,8.68,0,1.91.19,14.06.31,23.49L105.83,73.8c0-3.55,0-6.37.06-7,.09-3,.13-5.69.13-8.15a168.82,168.82,0,0,0-1.84-27q-1.84-11.17-7.36-18.28T81,3.16Q70.77,0,53.93,0,35,0,25,3.42A27.42,27.42,0,0,0,9.73,15.78a55.63,55.63,0,0,0-4.47,9.74A73.49,73.49,0,0,0,2.24,40Q1,49.2.53,63.67T0,101.29q0,23.16.53,38.15t1.71,24.73a87.21,87.21,0,0,0,3,15.52,44.33,44.33,0,0,0,4.47,10,26.59,26.59,0,0,0,15.39,12.76Q35.51,206,55.25,206q16.57,0,26.7-3.68A32.41,32.41,0,0,0,97.61,191q5.52-7.62,7.23-19.33a192.92,192.92,0,0,0,1.71-27.5c0-3.54-.11-18.71-.32-28.37Z"/><path class="cls-1" d="M441.44,128.61c0,4,.07,7.24,0,8.33q-.14,4.6-.39,8.15a63.23,63.23,0,0,1-.79,6.45,29.26,29.26,0,0,1-1.58,5.52q-1.58,4.49-9.47,4.48c-4,0-6.84-.35-8.42-1.06a5.53,5.53,0,0,1-3.16-3.68,23.29,23.29,0,0,1-1.18-5c-.27-1.92-.53-4.82-.79-8.68s-.44-9.12-.53-15.79-.13-15.52-.13-26.57q0-16,.13-26c.09-6.67.27-11.88.53-15.66s.52-6.57.79-8.41a23.33,23.33,0,0,1,1.18-4.87,6.09,6.09,0,0,1,3-3.82c1.48-.79,3.9-1.18,7.23-1.18q10,0,11.05,5c.18.88.4,2,.66,3.29a49,49,0,0,1,.66,5.39c.17,2.28.3,5.18.39,8.68.05,1.91.19,14.06.31,23.49L479.83,73.8c0-3.55,0-6.37.06-7,.09-3,.13-5.69.13-8.15a168.82,168.82,0,0,0-1.84-27q-1.85-11.17-7.36-18.28T455,3.16Q444.77,0,427.93,0,409,0,399,3.42a27.42,27.42,0,0,0-15.26,12.36,55.63,55.63,0,0,0-4.47,9.74,73.49,73.49,0,0,0-3,14.47q-1.2,9.21-1.71,23.68T374,101.29q0,23.16.53,38.15t1.71,24.73a87.21,87.21,0,0,0,3,15.52,44.33,44.33,0,0,0,4.47,10,26.59,26.59,0,0,0,15.39,12.76Q409.52,206,429.25,206q16.58,0,26.7-3.68A32.41,32.41,0,0,0,471.61,191q5.52-7.62,7.23-19.33a192.92,192.92,0,0,0,1.71-27.5c0-3.54-.11-18.71-.32-28.37Z"/></g></g></svg>