<svg xmlns="http://www.w3.org/2000/svg" viewBox="0 0 312.48 323.46"><g id="Layer_2" data-name="Layer 2"><g id="Layer_1-2" data-name="Layer 1"><polygon points="149.52 323.46 122.17 286.18 217.25 124 156.25 142 149.5 92.51 268.85 54.69 288.3 99.42 188.7 269.97 299.92 250.74 312.48 299.27 149.52 323.46"/><path d="M86.09,164.2c.07,5.05.1,9.24.07,10.63q-.18,5.88-.51,10.41a79.84,79.84,0,0,1-1,8.23,36.73,36.73,0,0,1-2,7.05c-1.35,3.82-5.38,5.71-12.1,5.71q-7.73,0-10.74-1.34a7.07,7.07,0,0,1-4-4.7,29.47,29.47,0,0,1-1.52-6.38q-.5-3.69-1-11.09t-.67-20.15q-.18-12.76-.18-33.93,0-20.47.18-33.25t.67-20c.33-4.82.67-8.4,1-10.75a29.4,29.4,0,0,1,1.52-6.21,7.76,7.76,0,0,1,3.86-4.88c1.9-1,5-1.51,9.23-1.51q12.77,0,14.11,6.39c.22,1.12.51,2.51.84,4.19a59,59,0,0,1,.84,6.89c.22,2.91.39,6.61.51,11.08.06,2.44.24,18,.39,30l49.58-16.38c0-4.53,0-8.14.07-8.91q.17-5.7.17-10.41A216.67,216.67,0,0,0,133,40.47q-2.35-14.26-9.41-23.34T103.45,4q-13.1-4-34.6-4Q44.67,0,31.91,4.37A35,35,0,0,0,12.42,20.15a70.31,70.31,0,0,0-5.7,12.43A94.83,94.83,0,0,0,2.85,51.05Q1.34,62.81.67,81.29t-.67,48Q0,158.89.67,178T2.85,209.6a112.39,112.39,0,0,0,3.87,19.81,55.88,55.88,0,0,0,5.7,12.76,34,34,0,0,0,19.66,16.3Q45.34,263,70.53,263q21.16,0,34.1-4.7t20-14.45q7-9.73,9.24-24.68A247.08,247.08,0,0,0,136,184.06c0-4.52-.13-23.89-.4-36.22Z"/></g></g></svg>